<svg width="24" height="24" viewBox="0 0 24 24" fill="none" xmlns="http://www.w3.org/2000/svg">
<path fill-rule="evenodd" clip-rule="evenodd" d="M10.8 15.9C11.5111 15.3667 12.4889 15.3667 13.2 15.9L16.4 18.3C17.0592 18.7944 18 18.324 18 17.5V4.5C18 3.94772 17.5523 3.5 17 3.5H7C6.44772 3.5 6 3.94772 6 4.5V17.5C6 18.324 6.94076 18.7944 7.6 18.3L10.8 15.9ZM12 17.5L15.2 19.9C17.1777 21.3833 20 19.9721 20 17.5V4.5C20 2.84315 18.6569 1.5 17 1.5H7C5.34315 1.5 4 2.84315 4 4.5V17.5C4 19.9721 6.82229 21.3833 8.8 19.9L12 17.5Z" fill="#201D2F"/>
<path fill-rule="evenodd" clip-rule="evenodd" d="M8 6.5C8 5.94772 8.44772 5.5 9 5.5H15C15.5523 5.5 16 5.94772 16 6.5C16 7.05228 15.5523 7.5 15 7.5H9C8.44772 7.5 8 7.05228 8 6.5Z" fill="#201D2F"/>
</svg>
