<svg width="25" height="24" viewBox="0 0 25 24" fill="none" xmlns="http://www.w3.org/2000/svg">
<path d="M1.4999 13.2C1.20816 13.2 0.928375 13.3159 0.722085 13.5222C0.515795 13.7285 0.399902 14.0083 0.399902 14.3V16.5C0.399902 16.7917 0.515795 17.0715 0.722085 17.2778C0.928375 17.4841 1.20816 17.6 1.4999 17.6C1.79164 17.6 2.07143 17.4841 2.27772 17.2778C2.48401 17.0715 2.5999 16.7917 2.5999 16.5V14.3C2.5999 14.0083 2.48401 13.7285 2.27772 13.5222C2.07143 13.3159 1.79164 13.2 1.4999 13.2ZM23.4999 13.2C23.2082 13.2 22.9284 13.3159 22.7221 13.5222C22.5158 13.7285 22.3999 14.0083 22.3999 14.3V16.5C22.3999 16.7917 22.5158 17.0715 22.7221 17.2778C22.9284 17.4841 23.2082 17.6 23.4999 17.6C23.7916 17.6 24.0714 17.4841 24.2777 17.2778C24.484 17.0715 24.5999 16.7917 24.5999 16.5V14.3C24.5999 14.0083 24.484 13.7285 24.2777 13.5222C24.0714 13.3159 23.7916 13.2 23.4999 13.2ZM17.9999 5.5H13.5999V4.092C13.9324 3.90004 14.2089 3.6244 14.4019 3.29249C14.5948 2.96057 14.6976 2.58393 14.6999 2.2C14.6999 1.61652 14.4681 1.05694 14.0555 0.644365C13.643 0.231785 13.0834 0 12.4999 0C11.9164 0 11.3568 0.231785 10.9443 0.644365C10.5317 1.05694 10.2999 1.61652 10.2999 2.2C10.3022 2.58393 10.405 2.96057 10.5979 3.29249C10.7909 3.6244 11.0674 3.90004 11.3999 4.092V5.5H6.9999C6.12469 5.5 5.28532 5.84768 4.66645 6.46655C4.04758 7.08542 3.6999 7.92479 3.6999 8.8V18.7C3.6999 19.5752 4.04758 20.4146 4.66645 21.0335C5.28532 21.6523 6.12469 22 6.9999 22H17.9999C18.8751 22 19.7145 21.6523 20.3334 21.0335C20.9522 20.4146 21.2999 19.5752 21.2999 18.7V8.8C21.2999 7.92479 20.9522 7.08542 20.3334 6.46655C19.7145 5.84768 18.8751 5.5 17.9999 5.5ZM14.3919 7.7L13.8419 9.9H11.1579L10.6079 7.7H14.3919ZM19.0999 18.7C19.0999 18.9917 18.984 19.2715 18.7777 19.4778C18.5714 19.6841 18.2916 19.8 17.9999 19.8H6.9999C6.70816 19.8 6.42838 19.6841 6.22208 19.4778C6.0158 19.2715 5.8999 18.9917 5.8999 18.7V8.8C5.8999 8.50826 6.0158 8.22847 6.22208 8.02218C6.42838 7.81589 6.70816 7.7 6.9999 7.7H8.3419L9.1999 11.264C9.26013 11.5081 9.40213 11.7241 9.60228 11.8762C9.80242 12.0284 10.0486 12.1073 10.2999 12.1H14.6999C14.9512 12.1073 15.1974 12.0284 15.3975 11.8762C15.5977 11.7241 15.7397 11.5081 15.7999 11.264L16.6579 7.7H17.9999C18.2916 7.7 18.5714 7.81589 18.7777 8.02218C18.984 8.22847 19.0999 8.50826 19.0999 8.8V18.7Z" fill="#007A8C"/>
<path d="M19.1001 20.8994H4.80029V6.59961H19.1001V20.8994ZM9.19971 14.2988C8.98236 14.2989 8.7701 14.3637 8.58936 14.4844C8.40857 14.6052 8.26736 14.7767 8.18408 14.9775C8.10084 15.1785 8.07916 15.3999 8.12158 15.6133C8.16403 15.8267 8.26853 16.0229 8.42236 16.1768C8.57619 16.3305 8.77251 16.4351 8.98584 16.4775C9.199 16.5199 9.4198 16.4981 9.62061 16.415C9.8216 16.3318 9.99388 16.1907 10.1147 16.0098C10.2356 15.8289 10.3003 15.6159 10.3003 15.3984C10.3002 15.1069 10.1842 14.8273 9.97803 14.6211C9.77174 14.4148 9.49145 14.2988 9.19971 14.2988ZM15.8003 14.2988C15.5827 14.2988 15.3699 14.3635 15.189 14.4844C15.0082 14.6052 14.8669 14.7767 14.7837 14.9775C14.7005 15.1785 14.6788 15.3999 14.7212 15.6133C14.7636 15.8266 14.8682 16.0229 15.022 16.1768C15.1758 16.3306 15.3721 16.4351 15.5854 16.4775C15.7988 16.52 16.0202 16.4983 16.2212 16.415C16.4221 16.3318 16.5935 16.1906 16.7144 16.0098C16.8352 15.8289 16.8999 15.616 16.8999 15.3984C16.8998 15.1068 16.7838 14.8273 16.5776 14.6211C16.3714 14.4149 16.0919 14.2989 15.8003 14.2988Z" fill="#007A8C"/>
</svg>
