<svg width="19" height="18" viewBox="0 0 19 18" fill="none" xmlns="http://www.w3.org/2000/svg">
<g clip-path="url(#clip0_118_471)">
<path d="M15.3333 6.84445H11.6823L8.32496 1.22406C8.28019 1.14923 8.21555 1.08705 8.13757 1.0438C8.0596 1.00055 7.97107 0.977778 7.88093 0.977783L5.78857 0.977783C5.449 0.977783 5.20399 1.28853 5.29726 1.60081L6.8635 6.84445H3.57769L2.19769 5.08445C2.10122 4.96131 1.94949 4.8889 1.7888 4.8889H0.511346C0.178804 4.8889 -0.0652514 5.18773 0.0155681 5.49634L1.02214 8.80001L0.0155681 12.1037C-0.0652514 12.4123 0.178804 12.7111 0.511346 12.7111H1.7888C1.9498 12.7111 2.10122 12.6387 2.19769 12.5156L3.57769 10.7556H6.8635L5.29726 15.9989C5.20399 16.3112 5.449 16.6222 5.78857 16.6222H7.88093C8.06429 16.6222 8.2336 16.5281 8.32464 16.376L11.6823 10.7556H15.3333C16.4625 10.7556 18.3999 9.88015 18.3999 8.80001C18.3999 7.71987 16.4625 6.84445 15.3333 6.84445Z" fill="#23B7F7"/>
</g>
<defs>
<clipPath id="clip0_118_471">
<rect width="18.4" height="17.6" fill="white"/>
</clipPath>
</defs>
</svg>
