<svg width="17" height="17" viewBox="0 0 17 17" fill="none" xmlns="http://www.w3.org/2000/svg">
<g clip-path="url(#clip0_118_558)">
<path d="M16.574 6.53339C15.727 6.53718 12.6362 6.71305 10.337 8.95422C9.37097 9.81843 8.78064 10.8005 8.40001 11.721C8.01939 10.8005 7.42905 9.81843 6.46305 8.95422C4.16384 6.71305 1.07305 6.53718 0.226052 6.53339C0.0974269 6.5328 -0.00115642 6.63256 1.02479e-05 6.76147C0.00671858 7.5758 0.20826 10.4406 2.58914 12.5744C5.03972 14.9608 7.46668 14.9334 8.40001 14.9334C9.33335 14.9334 11.7597 14.9611 14.2109 12.5744C16.5921 10.4403 16.7933 7.5758 16.8 6.76147C16.8012 6.63256 16.7026 6.5328 16.574 6.53339ZM8.39943 9.75922C8.77335 9.20943 9.20443 8.71564 9.68539 8.28572C10.2422 7.74293 10.8398 7.31447 11.443 6.96797C10.9635 4.91172 9.93447 3.08735 8.62168 1.94489C8.5018 1.84047 8.30026 1.84047 8.18009 1.94489C6.86789 3.08647 5.83889 4.9091 5.35851 6.9636C5.95264 7.30485 6.53976 7.72601 7.08576 8.2583C7.58276 8.70362 8.02387 9.20761 8.39943 9.75922Z" fill="#23B7F6"/>
</g>
<defs>
<clipPath id="clip0_118_558">
<rect width="16.8" height="16.8" fill="white"/>
</clipPath>
</defs>
</svg>
