<svg width="313" height="108" viewBox="0 0 313 108" fill="none" xmlns="http://www.w3.org/2000/svg">
<path d="M296.319 0C297.7 0 298.819 1.11929 298.819 2.5C298.819 3.88071 297.7 5 296.319 5H295.952V10.8545H304.053C308.471 10.8545 312.053 14.4362 312.053 18.8545V63.0029C312.053 67.4211 308.471 71.0029 304.053 71.0029H303.983V73.2305C303.983 74.6112 302.864 75.7305 301.483 75.7305C300.103 75.7302 298.983 74.611 298.983 73.2305V71.0029H271.855V73.2305C271.855 74.6112 270.736 75.7305 269.355 75.7305C267.975 75.7304 266.855 74.6111 266.855 73.2305V71.0029H265.083C260.665 71.0029 257.083 67.4212 257.083 63.0029V18.8545C257.083 14.4362 260.665 10.8545 265.083 10.8545H273.74V5H273.371C271.991 4.99977 270.871 3.88057 270.871 2.5C270.871 1.11943 271.991 0.000230873 273.371 0H296.319ZM278.74 5V10.8545H290.952V5H278.74Z" fill="white"/>
<path d="M4.3458 53.9323V24.8414H15.2549C17.4897 24.8414 19.3647 25.2581 20.8799 26.0914C22.4045 26.9247 23.5551 28.0706 24.3316 29.5289C25.1176 30.9778 25.5106 32.6255 25.5106 34.4721C25.5106 36.3376 25.1176 37.9948 24.3316 39.4437C23.5456 40.8925 22.3856 42.0336 20.8515 42.867C19.3174 43.6908 17.4282 44.1028 15.1839 44.1028H7.95376V39.7704H14.4736C15.7805 39.7704 16.8505 39.5431 17.6839 39.0886C18.5172 38.634 19.1327 38.009 19.5305 37.2136C19.9377 36.4181 20.1413 35.5043 20.1413 34.4721C20.1413 33.4399 19.9377 32.5308 19.5305 31.7448C19.1327 30.9588 18.5125 30.348 17.6697 29.9124C16.8363 29.4673 15.7615 29.2448 14.4452 29.2448H9.61569V53.9323H4.3458ZM35.7485 54.3727C34.3659 54.3727 33.1207 54.1264 32.0127 53.634C30.9142 53.1321 30.043 52.3935 29.3991 51.4181C28.7646 50.4427 28.4474 49.2401 28.4474 47.8102C28.4474 46.5791 28.6746 45.5611 29.1292 44.7562C29.5837 43.9513 30.204 43.3073 30.99 42.8244C31.776 42.3414 32.6614 41.9768 33.6462 41.7306C34.6405 41.4749 35.668 41.2903 36.7286 41.1766C38.007 41.0441 39.044 40.9257 39.8394 40.8215C40.6349 40.7079 41.2125 40.5374 41.5724 40.3102C41.9417 40.0734 42.1263 39.7088 42.1263 39.2164V39.1312C42.1263 38.0611 41.8091 37.2325 41.1746 36.6454C40.5402 36.0583 39.6263 35.7647 38.4332 35.7647C37.1737 35.7647 36.1746 36.0393 35.436 36.5886C34.7068 37.1378 34.2144 37.7865 33.9587 38.5346L29.1576 37.8528C29.5364 36.527 30.1614 35.4191 31.0326 34.5289C31.9038 33.6293 32.9691 32.9569 34.2286 32.5119C35.4881 32.0573 36.8801 31.83 38.4048 31.83C39.4559 31.83 40.5023 31.9531 41.544 32.1994C42.5856 32.4456 43.5373 32.8528 44.3991 33.4209C45.2608 33.9797 45.9521 34.742 46.4729 35.7079C47.0032 36.6738 47.2684 37.8812 47.2684 39.33V53.9323H42.3252V50.9352H42.1548C41.8423 51.5412 41.4019 52.1094 40.8337 52.6397C40.275 53.1605 39.5695 53.5819 38.7173 53.9039C37.8745 54.2164 36.8849 54.3727 35.7485 54.3727ZM37.0837 50.5942C38.1159 50.5942 39.0108 50.3906 39.7684 49.9834C40.526 49.5668 41.1084 49.0175 41.5155 48.3357C41.9322 47.6539 42.1405 46.9105 42.1405 46.1056V43.5346C41.9796 43.6672 41.7049 43.7903 41.3167 43.9039C40.9379 44.0175 40.5118 44.117 40.0383 44.2022C39.5648 44.2874 39.096 44.3632 38.632 44.4295C38.168 44.4958 37.7655 44.5526 37.4246 44.5999C36.6576 44.7041 35.971 44.8745 35.365 45.1113C34.7589 45.348 34.2807 45.6795 33.9303 46.1056C33.5799 46.5223 33.4048 47.062 33.4048 47.7249C33.4048 48.6719 33.7504 49.3869 34.4417 49.8698C35.133 50.3528 36.0137 50.5942 37.0837 50.5942ZM57.5809 41.1482V53.9323H52.4388V32.1141H57.3536V35.8215H57.6093C58.1112 34.5999 58.9114 33.6293 60.0099 32.9096C61.1178 32.1899 62.4862 31.83 64.115 31.83C65.6207 31.83 66.9322 32.152 68.0496 32.7959C69.1765 33.4399 70.0477 34.3727 70.6633 35.5942C71.2883 36.8158 71.596 38.2978 71.5866 40.0403V53.9323H66.4445V40.8357C66.4445 39.3774 66.0657 38.2363 65.3082 37.4124C64.5601 36.5886 63.5231 36.1766 62.1974 36.1766C61.2977 36.1766 60.4976 36.3755 59.7968 36.7732C59.1055 37.1615 58.561 37.7249 58.1633 38.4636C57.775 39.2022 57.5809 40.0971 57.5809 41.1482ZM86.3025 62.5687C84.4559 62.5687 82.8697 62.3177 81.544 61.8158C80.2182 61.3234 79.1529 60.6605 78.3479 59.8272C77.543 58.9939 76.9843 58.0706 76.6718 57.0573L81.3025 55.9352C81.5108 56.3613 81.8138 56.7827 82.2116 57.1994C82.6093 57.6255 83.1443 57.9759 83.8167 58.2505C84.4985 58.5346 85.3555 58.6766 86.3877 58.6766C87.846 58.6766 89.0534 58.3215 90.0099 57.6113C90.9663 56.9105 91.4445 55.7552 91.4445 54.1454V50.0119H91.1888C90.9237 50.5422 90.5354 51.0867 90.0241 51.6454C89.5222 52.2041 88.8546 52.6728 88.0212 53.0516C87.1974 53.4304 86.1604 53.6198 84.9104 53.6198C83.2343 53.6198 81.7144 53.2268 80.3508 52.4408C78.9966 51.6454 77.9171 50.4617 77.1121 48.8897C76.3167 47.3083 75.919 45.3291 75.919 42.9522C75.919 40.5564 76.3167 38.5346 77.1121 36.8869C77.9171 35.2297 79.0013 33.9749 80.365 33.1227C81.7286 32.2609 83.2485 31.83 84.9246 31.83C86.203 31.83 87.2542 32.0478 88.078 32.4834C88.9114 32.9096 89.5743 33.4257 90.0667 34.0317C90.5591 34.6283 90.9332 35.1918 91.1888 35.7221H91.4729V32.1141H96.544V54.2874C96.544 56.153 96.0989 57.6965 95.2087 58.9181C94.3186 60.1397 93.1017 61.0535 91.5582 61.6596C90.0146 62.2656 88.2627 62.5687 86.3025 62.5687ZM86.3451 49.5857C87.4341 49.5857 88.3621 49.3206 89.1292 48.7903C89.8962 48.26 90.4786 47.4977 90.8763 46.5033C91.2741 45.509 91.4729 44.3158 91.4729 42.9238C91.4729 41.5507 91.2741 40.348 90.8763 39.3158C90.4881 38.2836 89.9104 37.4834 89.1434 36.9153C88.3858 36.3376 87.453 36.0488 86.3451 36.0488C85.1993 36.0488 84.2428 36.3471 83.4758 36.9437C82.7087 37.5403 82.1311 38.3594 81.7428 39.4011C81.3546 40.4333 81.1604 41.6075 81.1604 42.9238C81.1604 44.259 81.3546 45.4285 81.7428 46.4323C82.1405 47.4266 82.7229 48.2031 83.49 48.7619C84.2665 49.3111 85.2182 49.5857 86.3451 49.5857ZM108.092 54.3727C106.71 54.3727 105.464 54.1264 104.356 53.634C103.258 53.1321 102.387 52.3935 101.743 51.4181C101.108 50.4427 100.791 49.2401 100.791 47.8102C100.791 46.5791 101.018 45.5611 101.473 44.7562C101.927 43.9513 102.548 43.3073 103.334 42.8244C104.12 42.3414 105.005 41.9768 105.99 41.7306C106.984 41.4749 108.012 41.2903 109.072 41.1766C110.351 41.0441 111.388 40.9257 112.183 40.8215C112.979 40.7079 113.556 40.5374 113.916 40.3102C114.285 40.0734 114.47 39.7088 114.47 39.2164V39.1312C114.47 38.0611 114.153 37.2325 113.518 36.6454C112.884 36.0583 111.97 35.7647 110.777 35.7647C109.517 35.7647 108.518 36.0393 107.78 36.5886C107.051 37.1378 106.558 37.7865 106.302 38.5346L101.501 37.8528C101.88 36.527 102.505 35.4191 103.376 34.5289C104.248 33.6293 105.313 32.9569 106.572 32.5119C107.832 32.0573 109.224 31.83 110.749 31.83C111.8 31.83 112.846 31.9531 113.888 32.1994C114.929 32.4456 115.881 32.8528 116.743 33.4209C117.605 33.9797 118.296 34.742 118.817 35.7079C119.347 36.6738 119.612 37.8812 119.612 39.33V53.9323H114.669V50.9352H114.499C114.186 51.5412 113.746 52.1094 113.177 52.6397C112.619 53.1605 111.913 53.5819 111.061 53.9039C110.218 54.2164 109.229 54.3727 108.092 54.3727ZM109.427 50.5942C110.46 50.5942 111.355 50.3906 112.112 49.9834C112.87 49.5668 113.452 49.0175 113.859 48.3357C114.276 47.6539 114.484 46.9105 114.484 46.1056V43.5346C114.323 43.6672 114.049 43.7903 113.66 43.9039C113.282 44.0175 112.856 44.117 112.382 44.2022C111.909 44.2874 111.44 44.3632 110.976 44.4295C110.512 44.4958 110.109 44.5526 109.768 44.5999C109.001 44.7041 108.315 44.8745 107.709 45.1113C107.103 45.348 106.624 45.6795 106.274 46.1056C105.924 46.5223 105.749 47.062 105.749 47.7249C105.749 48.6719 106.094 49.3869 106.785 49.8698C107.477 50.3528 108.357 50.5942 109.427 50.5942ZM129.925 41.1482V53.9323H124.783V32.1141H129.697V35.8215H129.953C130.455 34.5999 131.255 33.6293 132.354 32.9096C133.462 32.1899 134.83 31.83 136.459 31.83C137.964 31.83 139.276 32.152 140.393 32.7959C141.52 33.4399 142.391 34.3727 143.007 35.5942C143.632 36.8158 143.94 38.2978 143.93 40.0403V53.9323H138.788V40.8357C138.788 39.3774 138.409 38.2363 137.652 37.4124C136.904 36.5886 135.867 36.1766 134.541 36.1766C133.641 36.1766 132.841 36.3755 132.141 36.7732C131.449 37.1615 130.905 37.7249 130.507 38.4636C130.119 39.2022 129.925 40.0971 129.925 41.1482ZM157.254 54.3158C155.54 54.3158 154.006 53.8755 152.652 52.9948C151.298 52.1141 150.228 50.8357 149.442 49.1596C148.656 47.4834 148.263 45.4475 148.263 43.0516C148.263 40.6274 148.66 38.5819 149.456 36.9153C150.261 35.2391 151.345 33.9749 152.709 33.1227C154.072 32.2609 155.592 31.83 157.268 31.83C158.547 31.83 159.598 32.0478 160.422 32.4834C161.246 32.9096 161.899 33.4257 162.382 34.0317C162.865 34.6283 163.239 35.1918 163.504 35.7221H163.717V24.8414H168.874V53.9323H163.817V50.4948H163.504C163.239 51.0251 162.856 51.5886 162.354 52.1852C161.852 52.7723 161.189 53.2742 160.365 53.6908C159.541 54.1075 158.504 54.3158 157.254 54.3158ZM158.689 50.0971C159.778 50.0971 160.706 49.8035 161.473 49.2164C162.24 48.6198 162.822 47.7912 163.22 46.7306C163.618 45.67 163.817 44.4342 163.817 43.0232C163.817 41.6122 163.618 40.3859 163.22 39.3442C162.832 38.3026 162.254 37.4929 161.487 36.9153C160.73 36.3376 159.797 36.0488 158.689 36.0488C157.543 36.0488 156.587 36.3471 155.82 36.9437C155.052 37.5403 154.475 38.3641 154.087 39.4153C153.698 40.4664 153.504 41.6691 153.504 43.0232C153.504 44.3869 153.698 45.6037 154.087 46.6738C154.484 47.7344 155.067 48.5725 155.834 49.188C156.61 49.7941 157.562 50.0971 158.689 50.0971ZM180.631 54.3727C179.249 54.3727 178.003 54.1264 176.896 53.634C175.797 53.1321 174.926 52.3935 174.282 51.4181C173.647 50.4427 173.33 49.2401 173.33 47.8102C173.33 46.5791 173.557 45.5611 174.012 44.7562C174.467 43.9513 175.087 43.3073 175.873 42.8244C176.659 42.3414 177.544 41.9768 178.529 41.7306C179.523 41.4749 180.551 41.2903 181.611 41.1766C182.89 41.0441 183.927 40.9257 184.722 40.8215C185.518 40.7079 186.095 40.5374 186.455 40.3102C186.824 40.0734 187.009 39.7088 187.009 39.2164V39.1312C187.009 38.0611 186.692 37.2325 186.057 36.6454C185.423 36.0583 184.509 35.7647 183.316 35.7647C182.057 35.7647 181.057 36.0393 180.319 36.5886C179.59 37.1378 179.097 37.7865 178.842 38.5346L174.04 37.8528C174.419 36.527 175.044 35.4191 175.915 34.5289C176.787 33.6293 177.852 32.9569 179.111 32.5119C180.371 32.0573 181.763 31.83 183.288 31.83C184.339 31.83 185.385 31.9531 186.427 32.1994C187.468 32.4456 188.42 32.8528 189.282 33.4209C190.144 33.9797 190.835 34.742 191.356 35.7079C191.886 36.6738 192.151 37.8812 192.151 39.33V53.9323H187.208V50.9352H187.038C186.725 51.5412 186.285 52.1094 185.717 52.6397C185.158 53.1605 184.452 53.5819 183.6 53.9039C182.757 54.2164 181.768 54.3727 180.631 54.3727ZM181.967 50.5942C182.999 50.5942 183.894 50.3906 184.651 49.9834C185.409 49.5668 185.991 49.0175 186.398 48.3357C186.815 47.6539 187.023 46.9105 187.023 46.1056V43.5346C186.862 43.6672 186.588 43.7903 186.199 43.9039C185.821 44.0175 185.395 44.117 184.921 44.2022C184.448 44.2874 183.979 44.3632 183.515 44.4295C183.051 44.4958 182.648 44.5526 182.307 44.5999C181.54 44.7041 180.854 44.8745 180.248 45.1113C179.642 45.348 179.164 45.6795 178.813 46.1056C178.463 46.5223 178.288 47.062 178.288 47.7249C178.288 48.6719 178.633 49.3869 179.324 49.8698C180.016 50.3528 180.896 50.5942 181.967 50.5942ZM197.322 53.9323V32.1141H202.307V35.7505H202.535C202.932 34.491 203.614 33.5204 204.58 32.8386C205.556 32.1473 206.668 31.8016 207.918 31.8016C208.202 31.8016 208.52 31.8158 208.87 31.8442C209.23 31.8632 209.528 31.8963 209.765 31.9437V36.6738C209.547 36.598 209.201 36.5317 208.728 36.4749C208.264 36.4086 207.814 36.3755 207.378 36.3755C206.441 36.3755 205.598 36.5791 204.85 36.9863C204.111 37.384 203.529 37.938 203.103 38.6482C202.677 39.3584 202.464 40.1776 202.464 41.1056V53.9323H197.322ZM219.069 54.3727C217.686 54.3727 216.441 54.1264 215.333 53.634C214.235 53.1321 213.363 52.3935 212.719 51.4181C212.085 50.4427 211.768 49.2401 211.768 47.8102C211.768 46.5791 211.995 45.5611 212.449 44.7562C212.904 43.9513 213.524 43.3073 214.31 42.8244C215.096 42.3414 215.982 41.9768 216.967 41.7306C217.961 41.4749 218.988 41.2903 220.049 41.1766C221.327 41.0441 222.364 40.9257 223.16 40.8215C223.955 40.7079 224.533 40.5374 224.893 40.3102C225.262 40.0734 225.447 39.7088 225.447 39.2164V39.1312C225.447 38.0611 225.129 37.2325 224.495 36.6454C223.86 36.0583 222.947 35.7647 221.753 35.7647C220.494 35.7647 219.495 36.0393 218.756 36.5886C218.027 37.1378 217.535 37.7865 217.279 38.5346L212.478 37.8528C212.857 36.527 213.482 35.4191 214.353 34.5289C215.224 33.6293 216.289 32.9569 217.549 32.5119C218.808 32.0573 220.2 31.83 221.725 31.83C222.776 31.83 223.823 31.9531 224.864 32.1994C225.906 32.4456 226.858 32.8528 227.719 33.4209C228.581 33.9797 229.272 34.742 229.793 35.7079C230.324 36.6738 230.589 37.8812 230.589 39.33V53.9323H225.646V50.9352H225.475C225.163 51.5412 224.722 52.1094 224.154 52.6397C223.595 53.1605 222.89 53.5819 222.038 53.9039C221.195 54.2164 220.205 54.3727 219.069 54.3727ZM220.404 50.5942C221.436 50.5942 222.331 50.3906 223.089 49.9834C223.846 49.5668 224.429 49.0175 224.836 48.3357C225.253 47.6539 225.461 46.9105 225.461 46.1056V43.5346C225.3 43.6672 225.025 43.7903 224.637 43.9039C224.258 44.0175 223.832 44.117 223.359 44.2022C222.885 44.2874 222.416 44.3632 221.952 44.4295C221.488 44.4958 221.086 44.5526 220.745 44.5999C219.978 44.7041 219.291 44.8745 218.685 45.1113C218.079 45.348 217.601 45.6795 217.251 46.1056C216.9 46.5223 216.725 47.062 216.725 47.7249C216.725 48.6719 217.071 49.3869 217.762 49.8698C218.453 50.3528 219.334 50.5942 220.404 50.5942ZM240.901 41.1482V53.9323H235.759V32.1141H240.674V35.8215H240.93C241.432 34.5999 242.232 33.6293 243.33 32.9096C244.438 32.1899 245.807 31.83 247.435 31.83C248.941 31.83 250.253 32.152 251.37 32.7959C252.497 33.4399 253.368 34.3727 253.984 35.5942C254.609 36.8158 254.916 38.2978 254.907 40.0403V53.9323H249.765V40.8357C249.765 39.3774 249.386 38.2363 248.628 37.4124C247.88 36.5886 246.843 36.1766 245.518 36.1766C244.618 36.1766 243.818 36.3755 243.117 36.7732C242.426 37.1615 241.881 37.7249 241.484 38.4636C241.095 39.2022 240.901 40.0971 240.901 41.1482Z" fill="white"/>
<path d="M263.302 54.2448C262.44 54.2448 261.701 53.9418 261.086 53.3357C260.47 52.7297 260.167 51.991 260.177 51.1198C260.167 50.2675 260.47 49.5384 261.086 48.9323C261.701 48.3263 262.44 48.0232 263.302 48.0232C264.135 48.0232 264.86 48.3263 265.475 48.9323C266.1 49.5384 266.417 50.2675 266.427 51.1198C266.417 51.6975 266.266 52.223 265.972 52.6965C265.688 53.17 265.309 53.5488 264.836 53.8329C264.372 54.1075 263.86 54.2448 263.302 54.2448ZM278.014 54.3727C276.632 54.3727 275.386 54.1264 274.278 53.634C273.18 53.1321 272.309 52.3935 271.665 51.4181C271.03 50.4427 270.713 49.2401 270.713 47.8102C270.713 46.5791 270.94 45.5611 271.395 44.7562C271.849 43.9513 272.47 43.3073 273.256 42.8244C274.042 42.3414 274.927 41.9768 275.912 41.7306C276.906 41.4749 277.934 41.2903 278.994 41.1766C280.273 41.0441 281.31 40.9257 282.105 40.8215C282.901 40.7079 283.478 40.5374 283.838 40.3102C284.207 40.0734 284.392 39.7088 284.392 39.2164V39.1312C284.392 38.0611 284.075 37.2325 283.44 36.6454C282.806 36.0583 281.892 35.7647 280.699 35.7647C279.439 35.7647 278.44 36.0393 277.702 36.5886C276.972 37.1378 276.48 37.7865 276.224 38.5346L271.423 37.8528C271.802 36.527 272.427 35.4191 273.298 34.5289C274.169 33.6293 275.235 32.9569 276.494 32.5119C277.754 32.0573 279.146 31.83 280.67 31.83C281.722 31.83 282.768 31.9531 283.81 32.1994C284.851 32.4456 285.803 32.8528 286.665 33.4209C287.526 33.9797 288.218 34.742 288.739 35.7079C289.269 36.6738 289.534 37.8812 289.534 39.33V53.9323H284.591V50.9352H284.42C284.108 51.5412 283.668 52.1094 283.099 52.6397C282.541 53.1605 281.835 53.5819 280.983 53.9039C280.14 54.2164 279.151 54.3727 278.014 54.3727ZM279.349 50.5942C280.382 50.5942 281.276 50.3906 282.034 49.9834C282.792 49.5668 283.374 49.0175 283.781 48.3357C284.198 47.6539 284.406 46.9105 284.406 46.1056V43.5346C284.245 43.6672 283.971 43.7903 283.582 43.9039C283.204 44.0175 282.777 44.117 282.304 44.2022C281.83 44.2874 281.362 44.3632 280.898 44.4295C280.434 44.4958 280.031 44.5526 279.69 44.5999C278.923 44.7041 278.237 44.8745 277.631 45.1113C277.025 45.348 276.546 45.6795 276.196 46.1056C275.846 46.5223 275.67 47.062 275.67 47.7249C275.67 48.6719 276.016 49.3869 276.707 49.8698C277.399 50.3528 278.279 50.5942 279.349 50.5942ZM294.704 53.9323V32.1141H299.847V53.9323H294.704ZM297.29 29.0175C296.475 29.0175 295.775 28.7477 295.187 28.2079C294.6 27.6586 294.307 27.0005 294.307 26.2334C294.307 25.4569 294.6 24.7988 295.187 24.259C295.775 23.7098 296.475 23.4352 297.29 23.4352C298.114 23.4352 298.814 23.7098 299.392 24.259C299.979 24.7988 300.273 25.4569 300.273 26.2334C300.273 27.0005 299.979 27.6586 299.392 28.2079C298.814 28.7477 298.114 29.0175 297.29 29.0175Z" fill="#336749"/>
<path d="M43.9199 94.9119V93.8182H51.5563V94.9119H48.3546V104H47.1216V94.9119H43.9199ZM55.3944 104.159C54.6586 104.159 54.0239 103.997 53.4903 103.672C52.96 103.344 52.5506 102.886 52.2623 102.3C51.9772 101.71 51.8347 101.024 51.8347 100.241C51.8347 99.4593 51.9772 98.7699 52.2623 98.1733C52.5506 97.5734 52.9517 97.1061 53.4654 96.7713C53.9824 96.4332 54.5857 96.2642 55.2751 96.2642C55.6728 96.2642 56.0655 96.3305 56.4533 96.4631C56.8411 96.5956 57.1941 96.8111 57.5123 97.1094C57.8305 97.4044 58.084 97.7955 58.2729 98.2827C58.4618 98.7699 58.5563 99.3698 58.5563 100.082V100.58H52.6699V99.5653H57.3631C57.3631 99.1345 57.2769 98.75 57.1046 98.4119C56.9356 98.0739 56.6936 97.8071 56.3787 97.6115C56.0672 97.416 55.6993 97.3182 55.2751 97.3182C54.8077 97.3182 54.4034 97.4342 54.062 97.6662C53.7239 97.8949 53.4637 98.1932 53.2814 98.5611C53.0992 98.929 53.008 99.3234 53.008 99.7443V100.42C53.008 100.997 53.1074 101.486 53.3063 101.887C53.5085 102.285 53.7885 102.588 54.1465 102.797C54.5045 103.002 54.9204 103.105 55.3944 103.105C55.7026 103.105 55.981 103.062 56.2296 102.976C56.4815 102.886 56.6986 102.754 56.8809 102.578C57.0632 102.399 57.204 102.177 57.3035 101.912L58.437 102.23C58.3177 102.615 58.1171 102.953 57.8354 103.244C57.5537 103.533 57.2057 103.758 56.7914 103.92C56.3771 104.08 55.9114 104.159 55.3944 104.159ZM60.3411 104V96.3636H61.4746V97.5568H61.5741C61.7332 97.1491 61.99 96.8326 62.3447 96.6072C62.6993 96.3786 63.1252 96.2642 63.6224 96.2642C64.1261 96.2642 64.5454 96.3786 64.8802 96.6072C65.2182 96.8326 65.4817 97.1491 65.6707 97.5568H65.7502C65.9457 97.1624 66.2391 96.8492 66.6302 96.6172C67.0213 96.3819 67.4903 96.2642 68.0371 96.2642C68.7199 96.2642 69.2784 96.478 69.7126 96.9055C70.1467 97.3298 70.3638 97.991 70.3638 98.8892V104H69.1905V98.8892C69.1905 98.3258 69.0364 97.9231 68.7282 97.6811C68.4199 97.4392 68.057 97.3182 67.6394 97.3182C67.1025 97.3182 66.6865 97.4806 66.3915 97.8054C66.0966 98.1269 65.9491 98.5346 65.9491 99.0284V104H64.7559V98.7699C64.7559 98.3357 64.615 97.986 64.3333 97.7209C64.0516 97.4524 63.6886 97.3182 63.2445 97.3182C62.9396 97.3182 62.6546 97.3994 62.3894 97.5618C62.1276 97.7242 61.9154 97.9496 61.753 98.2379C61.5939 98.523 61.5144 98.8527 61.5144 99.2273V104H60.3411ZM74.7562 104.179C74.2723 104.179 73.8332 104.088 73.4388 103.906C73.0443 103.72 72.7311 103.453 72.4991 103.105C72.2671 102.754 72.1511 102.33 72.1511 101.832C72.1511 101.395 72.2373 101.04 72.4096 100.768C72.582 100.493 72.8123 100.278 73.1007 100.122C73.389 99.9664 73.7072 99.8504 74.0552 99.7741C74.4066 99.6946 74.7595 99.6316 75.1142 99.5852C75.5782 99.5256 75.9544 99.4808 76.2427 99.451C76.5344 99.4179 76.7465 99.3632 76.8791 99.2869C77.015 99.2107 77.0829 99.0781 77.0829 98.8892V98.8494C77.0829 98.3589 76.9487 97.9777 76.6802 97.706C76.4151 97.4342 76.0124 97.2983 75.4721 97.2983C74.912 97.2983 74.4729 97.4209 74.1547 97.6662C73.8365 97.9115 73.6128 98.1733 73.4835 98.4517L72.3699 98.054C72.5687 97.59 72.8339 97.2287 73.1653 96.9702C73.5001 96.7083 73.8647 96.526 74.2591 96.4233C74.6568 96.3172 75.0479 96.2642 75.4324 96.2642C75.6776 96.2642 75.9594 96.294 76.2775 96.3537C76.599 96.41 76.9089 96.5277 77.2072 96.7067C77.5088 96.8857 77.7591 97.1558 77.9579 97.517C78.1568 97.8783 78.2562 98.3622 78.2562 98.9688V104H77.0829V102.966H77.0233C76.9437 103.132 76.8112 103.309 76.6256 103.498C76.4399 103.687 76.193 103.848 75.8848 103.98C75.5765 104.113 75.2004 104.179 74.7562 104.179ZM74.9352 103.125C75.3992 103.125 75.7903 103.034 76.1085 102.852C76.43 102.669 76.672 102.434 76.8344 102.146C77.0001 101.857 77.0829 101.554 77.0829 101.236V100.162C77.0332 100.222 76.9238 100.276 76.7548 100.326C76.5891 100.372 76.3969 100.414 76.1781 100.45C75.9627 100.483 75.7522 100.513 75.5467 100.54C75.3445 100.563 75.1805 100.583 75.0545 100.599C74.7496 100.639 74.4646 100.704 74.1994 100.793C73.9376 100.879 73.7255 101.01 73.5631 101.186C73.404 101.358 73.3244 101.594 73.3244 101.892C73.3244 102.3 73.4752 102.608 73.7768 102.817C74.0818 103.022 74.4679 103.125 74.9352 103.125ZM81.571 99.4062V104H80.3977V96.3636H81.5313V97.5568H81.6307C81.8097 97.169 82.0815 96.8575 82.446 96.6222C82.8106 96.3835 83.2813 96.2642 83.858 96.2642C84.375 96.2642 84.8274 96.3703 85.2152 96.5824C85.603 96.7912 85.9046 97.1094 86.12 97.5369C86.3355 97.9612 86.4432 98.4981 86.4432 99.1477V104H85.2699V99.2273C85.2699 98.6274 85.1141 98.16 84.8026 97.8253C84.491 97.4872 84.0635 97.3182 83.5199 97.3182C83.1454 97.3182 82.8106 97.3994 82.5156 97.5618C82.224 97.7242 81.9936 97.9612 81.8246 98.2727C81.6556 98.5843 81.571 98.9621 81.571 99.4062ZM92.6838 104V93.8182H96.1241C96.9229 93.8182 97.5758 93.9624 98.0829 94.2507C98.5934 94.5357 98.9712 94.9219 99.2165 95.4091C99.4617 95.8963 99.5844 96.4399 99.5844 97.0398C99.5844 97.6397 99.4617 98.1849 99.2165 98.6754C98.9745 99.166 98.6 99.5571 98.0929 99.8487C97.5858 100.137 96.9362 100.281 96.144 100.281H93.6781V99.1875H96.1042C96.6511 99.1875 97.0903 99.093 97.4217 98.9041C97.7532 98.7152 97.9934 98.46 98.1426 98.1385C98.2951 97.8137 98.3713 97.4474 98.3713 97.0398C98.3713 96.6321 98.2951 96.2675 98.1426 95.946C97.9934 95.6245 97.7515 95.3726 97.4167 95.1903C97.082 95.0047 96.6379 94.9119 96.0844 94.9119H93.9167V104H92.6838ZM101.411 104V96.3636H102.585V104H101.411ZM102.008 95.0909C101.779 95.0909 101.582 95.013 101.416 94.8572C101.254 94.7015 101.173 94.5142 101.173 94.2955C101.173 94.0767 101.254 93.8894 101.416 93.7337C101.582 93.5779 101.779 93.5 102.008 93.5C102.237 93.5 102.432 93.5779 102.595 93.7337C102.76 93.8894 102.843 94.0767 102.843 94.2955C102.843 94.5142 102.76 94.7015 102.595 94.8572C102.432 95.013 102.237 95.0909 102.008 95.0909ZM105.907 99.4062V104H104.734V96.3636H105.867V97.5568H105.967C106.146 97.169 106.417 96.8575 106.782 96.6222C107.147 96.3835 107.617 96.2642 108.194 96.2642C108.711 96.2642 109.163 96.3703 109.551 96.5824C109.939 96.7912 110.241 97.1094 110.456 97.5369C110.671 97.9612 110.779 98.4981 110.779 99.1477V104H109.606V99.2273C109.606 98.6274 109.45 98.16 109.139 97.8253C108.827 97.4872 108.399 97.3182 107.856 97.3182C107.481 97.3182 107.147 97.3994 106.852 97.5618C106.56 97.7242 106.33 97.9612 106.161 98.2727C105.991 98.5843 105.907 98.9621 105.907 99.4062ZM116.244 96.3636V97.358H112.287V96.3636H116.244ZM113.44 94.5341H114.613V101.812C114.613 102.144 114.662 102.393 114.758 102.558C114.857 102.721 114.983 102.83 115.135 102.886C115.291 102.939 115.455 102.966 115.628 102.966C115.757 102.966 115.863 102.959 115.946 102.946C116.029 102.929 116.095 102.916 116.145 102.906L116.383 103.96C116.304 103.99 116.193 104.02 116.05 104.05C115.908 104.083 115.727 104.099 115.508 104.099C115.177 104.099 114.852 104.028 114.534 103.886C114.219 103.743 113.957 103.526 113.748 103.234C113.543 102.943 113.44 102.575 113.44 102.131V94.5341ZM120.256 104.179C119.772 104.179 119.333 104.088 118.939 103.906C118.544 103.72 118.231 103.453 117.999 103.105C117.767 102.754 117.651 102.33 117.651 101.832C117.651 101.395 117.737 101.04 117.91 100.768C118.082 100.493 118.312 100.278 118.601 100.122C118.889 99.9664 119.207 99.8504 119.555 99.7741C119.907 99.6946 120.26 99.6316 120.614 99.5852C121.078 99.5256 121.454 99.4808 121.743 99.451C122.034 99.4179 122.247 99.3632 122.379 99.2869C122.515 99.2107 122.583 99.0781 122.583 98.8892V98.8494C122.583 98.3589 122.449 97.9777 122.18 97.706C121.915 97.4342 121.512 97.2983 120.972 97.2983C120.412 97.2983 119.973 97.4209 119.655 97.6662C119.336 97.9115 119.113 98.1733 118.984 98.4517L117.87 98.054C118.069 97.59 118.334 97.2287 118.665 96.9702C119 96.7083 119.365 96.526 119.759 96.4233C120.157 96.3172 120.548 96.2642 120.932 96.2642C121.178 96.2642 121.459 96.294 121.778 96.3537C122.099 96.41 122.409 96.5277 122.707 96.7067C123.009 96.8857 123.259 97.1558 123.458 97.517C123.657 97.8783 123.756 98.3622 123.756 98.9688V104H122.583V102.966H122.523C122.444 103.132 122.311 103.309 122.126 103.498C121.94 103.687 121.693 103.848 121.385 103.98C121.077 104.113 120.7 104.179 120.256 104.179ZM120.435 103.125C120.899 103.125 121.29 103.034 121.609 102.852C121.93 102.669 122.172 102.434 122.334 102.146C122.5 101.857 122.583 101.554 122.583 101.236V100.162C122.533 100.222 122.424 100.276 122.255 100.326C122.089 100.372 121.897 100.414 121.678 100.45C121.463 100.483 121.252 100.513 121.047 100.54C120.845 100.563 120.68 100.583 120.555 100.599C120.25 100.639 119.965 100.704 119.699 100.793C119.438 100.879 119.225 101.01 119.063 101.186C118.904 101.358 118.824 101.594 118.824 101.892C118.824 102.3 118.975 102.608 119.277 102.817C119.582 103.022 119.968 103.125 120.435 103.125ZM125.898 104V96.3636H127.031V97.517H127.111C127.25 97.1392 127.502 96.8326 127.866 96.5973C128.231 96.362 128.642 96.2443 129.099 96.2443C129.186 96.2443 129.293 96.246 129.423 96.2493C129.552 96.2526 129.65 96.2576 129.716 96.2642V97.4574C129.676 97.4474 129.585 97.4325 129.442 97.4126C129.303 97.3894 129.156 97.3778 129 97.3778C128.629 97.3778 128.297 97.4557 128.006 97.6115C127.717 97.764 127.489 97.9761 127.32 98.2479C127.154 98.5163 127.071 98.8229 127.071 99.1676V104H125.898ZM139.101 93.8182H140.334V101.097C140.334 101.746 140.215 102.298 139.976 102.752C139.737 103.206 139.401 103.551 138.967 103.786C138.533 104.022 138.021 104.139 137.431 104.139C136.874 104.139 136.378 104.038 135.944 103.836C135.51 103.63 135.169 103.339 134.92 102.961C134.671 102.583 134.547 102.134 134.547 101.614H135.76C135.76 101.902 135.831 102.154 135.974 102.369C136.12 102.581 136.319 102.747 136.571 102.866C136.822 102.986 137.109 103.045 137.431 103.045C137.785 103.045 138.087 102.971 138.335 102.822C138.584 102.673 138.773 102.454 138.902 102.165C139.035 101.874 139.101 101.518 139.101 101.097V93.8182ZM145.847 104.159C145.112 104.159 144.477 103.997 143.943 103.672C143.413 103.344 143.004 102.886 142.715 102.3C142.43 101.71 142.288 101.024 142.288 100.241C142.288 99.4593 142.43 98.7699 142.715 98.1733C143.004 97.5734 143.405 97.1061 143.919 96.7713C144.436 96.4332 145.039 96.2642 145.728 96.2642C146.126 96.2642 146.519 96.3305 146.906 96.4631C147.294 96.5956 147.647 96.8111 147.965 97.1094C148.284 97.4044 148.537 97.7955 148.726 98.2827C148.915 98.7699 149.009 99.3698 149.009 100.082V100.58H143.123V99.5653H147.816C147.816 99.1345 147.73 98.75 147.558 98.4119C147.389 98.0739 147.147 97.8071 146.832 97.6115C146.52 97.416 146.152 97.3182 145.728 97.3182C145.261 97.3182 144.856 97.4342 144.515 97.6662C144.177 97.8949 143.917 98.1932 143.735 98.5611C143.552 98.929 143.461 99.3234 143.461 99.7443V100.42C143.461 100.997 143.561 101.486 143.759 101.887C143.962 102.285 144.242 102.588 144.6 102.797C144.958 103.002 145.374 103.105 145.847 103.105C146.156 103.105 146.434 103.062 146.683 102.976C146.935 102.886 147.152 102.754 147.334 102.578C147.516 102.399 147.657 102.177 147.757 101.912L148.89 102.23C148.771 102.615 148.57 102.953 148.289 103.244C148.007 103.533 147.659 103.758 147.245 103.92C146.83 104.08 146.365 104.159 145.847 104.159ZM151.968 93.8182V104H150.794V93.8182H151.968ZM156.364 104.179C155.88 104.179 155.441 104.088 155.046 103.906C154.652 103.72 154.339 103.453 154.107 103.105C153.875 102.754 153.759 102.33 153.759 101.832C153.759 101.395 153.845 101.04 154.017 100.768C154.189 100.493 154.42 100.278 154.708 100.122C154.996 99.9664 155.315 99.8504 155.663 99.7741C156.014 99.6946 156.367 99.6316 156.722 99.5852C157.186 99.5256 157.562 99.4808 157.85 99.451C158.142 99.4179 158.354 99.3632 158.487 99.2869C158.622 99.2107 158.69 99.0781 158.69 98.8892V98.8494C158.69 98.3589 158.556 97.9777 158.288 97.706C158.023 97.4342 157.62 97.2983 157.08 97.2983C156.519 97.2983 156.08 97.4209 155.762 97.6662C155.444 97.9115 155.22 98.1733 155.091 98.4517L153.977 98.054C154.176 97.59 154.441 97.2287 154.773 96.9702C155.108 96.7083 155.472 96.526 155.866 96.4233C156.264 96.3172 156.655 96.2642 157.04 96.2642C157.285 96.2642 157.567 96.294 157.885 96.3537C158.206 96.41 158.516 96.5277 158.815 96.7067C159.116 96.8857 159.366 97.1558 159.565 97.517C159.764 97.8783 159.864 98.3622 159.864 98.9688V104H158.69V102.966H158.631C158.551 103.132 158.419 103.309 158.233 103.498C158.047 103.687 157.8 103.848 157.492 103.98C157.184 104.113 156.808 104.179 156.364 104.179ZM156.543 103.125C157.007 103.125 157.398 103.034 157.716 102.852C158.037 102.669 158.279 102.434 158.442 102.146C158.608 101.857 158.69 101.554 158.69 101.236V100.162C158.641 100.222 158.531 100.276 158.362 100.326C158.197 100.372 158.004 100.414 157.786 100.45C157.57 100.483 157.36 100.513 157.154 100.54C156.952 100.563 156.788 100.583 156.662 100.599C156.357 100.639 156.072 100.704 155.807 100.793C155.545 100.879 155.333 101.01 155.17 101.186C155.011 101.358 154.932 101.594 154.932 101.892C154.932 102.3 155.083 102.608 155.384 102.817C155.689 103.022 156.075 103.125 156.543 103.125ZM162.005 96.3636H163.178V104.557C163.178 105.027 163.097 105.435 162.935 105.78C162.776 106.125 162.534 106.391 162.209 106.58C161.888 106.769 161.481 106.864 160.991 106.864C160.951 106.864 160.911 106.864 160.872 106.864C160.832 106.864 160.792 106.864 160.752 106.864V105.77C160.792 105.77 160.829 105.77 160.862 105.77C160.895 105.77 160.931 105.77 160.971 105.77C161.329 105.77 161.591 105.664 161.757 105.452C161.922 105.243 162.005 104.945 162.005 104.557V96.3636ZM162.582 95.0909C162.353 95.0909 162.156 95.013 161.99 94.8572C161.828 94.7015 161.747 94.5142 161.747 94.2955C161.747 94.0767 161.828 93.8894 161.99 93.7337C162.156 93.5779 162.353 93.5 162.582 93.5C162.811 93.5 163.006 93.5779 163.169 93.7337C163.334 93.8894 163.417 94.0767 163.417 94.2955C163.417 94.5142 163.334 94.7015 163.169 94.8572C163.006 95.013 162.811 95.0909 162.582 95.0909ZM167.575 104.179C167.091 104.179 166.652 104.088 166.257 103.906C165.863 103.72 165.549 103.453 165.317 103.105C165.085 102.754 164.969 102.33 164.969 101.832C164.969 101.395 165.056 101.04 165.228 100.768C165.4 100.493 165.631 100.278 165.919 100.122C166.207 99.9664 166.526 99.8504 166.874 99.7741C167.225 99.6946 167.578 99.6316 167.933 99.5852C168.397 99.5256 168.773 99.4808 169.061 99.451C169.353 99.4179 169.565 99.3632 169.697 99.2869C169.833 99.2107 169.901 99.0781 169.901 98.8892V98.8494C169.901 98.3589 169.767 97.9777 169.499 97.706C169.233 97.4342 168.831 97.2983 168.291 97.2983C167.73 97.2983 167.291 97.4209 166.973 97.6662C166.655 97.9115 166.431 98.1733 166.302 98.4517L165.188 98.054C165.387 97.59 165.652 97.2287 165.984 96.9702C166.318 96.7083 166.683 96.526 167.077 96.4233C167.475 96.3172 167.866 96.2642 168.251 96.2642C168.496 96.2642 168.778 96.294 169.096 96.3537C169.417 96.41 169.727 96.5277 170.026 96.7067C170.327 96.8857 170.577 97.1558 170.776 97.517C170.975 97.8783 171.075 98.3622 171.075 98.9688V104H169.901V102.966H169.842C169.762 103.132 169.63 103.309 169.444 103.498C169.258 103.687 169.011 103.848 168.703 103.98C168.395 104.113 168.019 104.179 167.575 104.179ZM167.754 103.125C168.218 103.125 168.609 103.034 168.927 102.852C169.248 102.669 169.49 102.434 169.653 102.146C169.818 101.857 169.901 101.554 169.901 101.236V100.162C169.852 100.222 169.742 100.276 169.573 100.326C169.407 100.372 169.215 100.414 168.996 100.45C168.781 100.483 168.571 100.513 168.365 100.54C168.163 100.563 167.999 100.583 167.873 100.599C167.568 100.639 167.283 100.704 167.018 100.793C166.756 100.879 166.544 101.01 166.381 101.186C166.222 101.358 166.143 101.594 166.143 101.892C166.143 102.3 166.294 102.608 166.595 102.817C166.9 103.022 167.286 103.125 167.754 103.125ZM174.389 99.4062V104H173.216V93.8182H174.389V97.5568H174.489C174.668 97.1624 174.936 96.8492 175.294 96.6172C175.656 96.3819 176.136 96.2642 176.736 96.2642C177.256 96.2642 177.712 96.3686 178.103 96.5774C178.494 96.7829 178.798 97.0994 179.013 97.527C179.232 97.9512 179.341 98.4915 179.341 99.1477V104H178.168V99.2273C178.168 98.6207 178.01 98.1518 177.696 97.8203C177.384 97.4856 176.951 97.3182 176.398 97.3182C176.013 97.3182 175.669 97.3994 175.364 97.5618C175.062 97.7242 174.824 97.9612 174.648 98.2727C174.476 98.5843 174.389 98.9621 174.389 99.4062ZM185.584 104V93.8182H189.025C189.823 93.8182 190.476 93.9624 190.983 94.2507C191.494 94.5357 191.872 94.9219 192.117 95.4091C192.362 95.8963 192.485 96.4399 192.485 97.0398C192.485 97.6397 192.362 98.1849 192.117 98.6754C191.875 99.166 191.5 99.5571 190.993 99.8487C190.486 100.137 189.837 100.281 189.044 100.281H186.578V99.1875H189.005C189.552 99.1875 189.991 99.093 190.322 98.9041C190.654 98.7152 190.894 98.46 191.043 98.1385C191.195 97.8137 191.272 97.4474 191.272 97.0398C191.272 96.6321 191.195 96.2675 191.043 95.946C190.894 95.6245 190.652 95.3726 190.317 95.1903C189.982 95.0047 189.538 94.9119 188.985 94.9119H186.817V104H185.584ZM196.559 104.179C196.075 104.179 195.636 104.088 195.241 103.906C194.847 103.72 194.534 103.453 194.302 103.105C194.07 102.754 193.954 102.33 193.954 101.832C193.954 101.395 194.04 101.04 194.212 100.768C194.385 100.493 194.615 100.278 194.903 100.122C195.192 99.9664 195.51 99.8504 195.858 99.7741C196.209 99.6946 196.562 99.6316 196.917 99.5852C197.381 99.5256 197.757 99.4808 198.045 99.451C198.337 99.4179 198.549 99.3632 198.682 99.2869C198.818 99.2107 198.886 99.0781 198.886 98.8892V98.8494C198.886 98.3589 198.751 97.9777 198.483 97.706C198.218 97.4342 197.815 97.2983 197.275 97.2983C196.715 97.2983 196.276 97.4209 195.957 97.6662C195.639 97.9115 195.416 98.1733 195.286 98.4517L194.173 98.054C194.371 97.59 194.637 97.2287 194.968 96.9702C195.303 96.7083 195.667 96.526 196.062 96.4233C196.46 96.3172 196.851 96.2642 197.235 96.2642C197.48 96.2642 197.762 96.294 198.08 96.3537C198.402 96.41 198.712 96.5277 199.01 96.7067C199.312 96.8857 199.562 97.1558 199.761 97.517C199.96 97.8783 200.059 98.3622 200.059 98.9688V104H198.886V102.966H198.826C198.746 103.132 198.614 103.309 198.428 103.498C198.243 103.687 197.996 103.848 197.688 103.98C197.379 104.113 197.003 104.179 196.559 104.179ZM196.738 103.125C197.202 103.125 197.593 103.034 197.911 102.852C198.233 102.669 198.475 102.434 198.637 102.146C198.803 101.857 198.886 101.554 198.886 101.236V100.162C198.836 100.222 198.727 100.276 198.558 100.326C198.392 100.372 198.2 100.414 197.981 100.45C197.765 100.483 197.555 100.513 197.349 100.54C197.147 100.563 196.983 100.583 196.857 100.599C196.552 100.639 196.267 100.704 196.002 100.793C195.74 100.879 195.528 101.01 195.366 101.186C195.207 101.358 195.127 101.594 195.127 101.892C195.127 102.3 195.278 102.608 195.58 102.817C195.884 103.022 196.271 103.125 196.738 103.125ZM203.374 99.4062V104H202.2V96.3636H203.334V97.5568H203.433C203.612 97.169 203.884 96.8575 204.249 96.6222C204.613 96.3835 205.084 96.2642 205.661 96.2642C206.178 96.2642 206.63 96.3703 207.018 96.5824C207.406 96.7912 207.707 97.1094 207.923 97.5369C208.138 97.9612 208.246 98.4981 208.246 99.1477V104H207.073V99.2273C207.073 98.6274 206.917 98.16 206.605 97.8253C206.294 97.4872 205.866 97.3182 205.323 97.3182C204.948 97.3182 204.613 97.3994 204.318 97.5618C204.027 97.7242 203.796 97.9612 203.627 98.2727C203.458 98.5843 203.374 98.9621 203.374 99.4062ZM213.472 107.023C212.906 107.023 212.418 106.95 212.011 106.804C211.603 106.661 211.263 106.473 210.991 106.237C210.723 106.005 210.509 105.757 210.35 105.491L211.285 104.835C211.391 104.974 211.525 105.134 211.688 105.312C211.85 105.495 212.072 105.652 212.354 105.785C212.639 105.921 213.012 105.989 213.472 105.989C214.089 105.989 214.598 105.839 214.999 105.541C215.4 105.243 215.6 104.776 215.6 104.139V102.588H215.501C215.415 102.727 215.292 102.9 215.133 103.105C214.977 103.307 214.752 103.488 214.457 103.647C214.165 103.803 213.771 103.881 213.273 103.881C212.657 103.881 212.103 103.735 211.613 103.443C211.126 103.152 210.74 102.727 210.455 102.17C210.173 101.614 210.032 100.937 210.032 100.142C210.032 99.3598 210.17 98.6787 210.445 98.0987C210.72 97.5154 211.103 97.0646 211.593 96.7464C212.084 96.425 212.65 96.2642 213.293 96.2642C213.791 96.2642 214.185 96.3471 214.477 96.5128C214.772 96.6752 214.997 96.8608 215.153 97.0696C215.312 97.2751 215.434 97.4441 215.521 97.5767H215.64V96.3636H216.773V104.219C216.773 104.875 216.624 105.409 216.326 105.82C216.031 106.234 215.633 106.537 215.133 106.729C214.636 106.925 214.082 107.023 213.472 107.023ZM213.433 102.827C213.903 102.827 214.301 102.719 214.626 102.504C214.951 102.288 215.197 101.978 215.366 101.574C215.536 101.17 215.62 100.686 215.62 100.122C215.62 99.572 215.537 99.0864 215.371 98.6655C215.206 98.2446 214.96 97.9148 214.636 97.6761C214.311 97.4375 213.91 97.3182 213.433 97.3182C212.935 97.3182 212.521 97.4441 212.19 97.696C211.862 97.9479 211.615 98.286 211.449 98.7102C211.286 99.1345 211.205 99.6051 211.205 100.122C211.205 100.652 211.288 101.121 211.454 101.529C211.623 101.933 211.871 102.252 212.2 102.484C212.531 102.712 212.942 102.827 213.433 102.827ZM221.168 104.179C220.684 104.179 220.245 104.088 219.851 103.906C219.456 103.72 219.143 103.453 218.911 103.105C218.679 102.754 218.563 102.33 218.563 101.832C218.563 101.395 218.649 101.04 218.822 100.768C218.994 100.493 219.224 100.278 219.513 100.122C219.801 99.9664 220.119 99.8504 220.467 99.7741C220.819 99.6946 221.172 99.6316 221.526 99.5852C221.99 99.5256 222.366 99.4808 222.655 99.451C222.947 99.4179 223.159 99.3632 223.291 99.2869C223.427 99.2107 223.495 99.0781 223.495 98.8892V98.8494C223.495 98.3589 223.361 97.9777 223.092 97.706C222.827 97.4342 222.424 97.2983 221.884 97.2983C221.324 97.2983 220.885 97.4209 220.567 97.6662C220.249 97.9115 220.025 98.1733 219.896 98.4517L218.782 98.054C218.981 97.59 219.246 97.2287 219.577 96.9702C219.912 96.7083 220.277 96.526 220.671 96.4233C221.069 96.3172 221.46 96.2642 221.844 96.2642C222.09 96.2642 222.371 96.294 222.69 96.3537C223.011 96.41 223.321 96.5277 223.619 96.7067C223.921 96.8857 224.171 97.1558 224.37 97.517C224.569 97.8783 224.668 98.3622 224.668 98.9688V104H223.495V102.966H223.435C223.356 103.132 223.223 103.309 223.038 103.498C222.852 103.687 222.605 103.848 222.297 103.98C221.989 104.113 221.612 104.179 221.168 104.179ZM221.347 103.125C221.811 103.125 222.202 103.034 222.521 102.852C222.842 102.669 223.084 102.434 223.246 102.146C223.412 101.857 223.495 101.554 223.495 101.236V100.162C223.445 100.222 223.336 100.276 223.167 100.326C223.001 100.372 222.809 100.414 222.59 100.45C222.375 100.483 222.164 100.513 221.959 100.54C221.757 100.563 221.593 100.583 221.467 100.599C221.162 100.639 220.877 100.704 220.612 100.793C220.35 100.879 220.138 101.01 219.975 101.186C219.816 101.358 219.737 101.594 219.737 101.892C219.737 102.3 219.887 102.608 220.189 102.817C220.494 103.022 220.88 103.125 221.347 103.125ZM227.983 99.4062V104H226.81V96.3636H227.943V97.5568H228.043C228.222 97.169 228.494 96.8575 228.858 96.6222C229.223 96.3835 229.693 96.2642 230.27 96.2642C230.787 96.2642 231.24 96.3703 231.627 96.5824C232.015 96.7912 232.317 97.1094 232.532 97.5369C232.748 97.9612 232.855 98.4981 232.855 99.1477V104H231.682V99.2273C231.682 98.6274 231.526 98.16 231.215 97.8253C230.903 97.4872 230.476 97.3182 229.932 97.3182C229.557 97.3182 229.223 97.3994 228.928 97.5618C228.636 97.7242 228.406 97.9612 228.237 98.2727C228.068 98.5843 227.983 98.9621 227.983 99.4062ZM237.883 104.159C237.246 104.159 236.685 103.998 236.197 103.677C235.71 103.352 235.329 102.895 235.054 102.305C234.779 101.711 234.641 101.01 234.641 100.202C234.641 99.3996 234.779 98.7036 235.054 98.1136C235.329 97.5237 235.712 97.0679 236.202 96.7464C236.693 96.425 237.26 96.2642 237.903 96.2642C238.4 96.2642 238.793 96.3471 239.081 96.5128C239.373 96.6752 239.595 96.8608 239.747 97.0696C239.903 97.2751 240.024 97.4441 240.11 97.5767H240.21V93.8182H241.383V104H240.249V102.827H240.11C240.024 102.966 239.901 103.142 239.742 103.354C239.583 103.562 239.356 103.75 239.061 103.915C238.766 104.078 238.373 104.159 237.883 104.159ZM238.042 103.105C238.513 103.105 238.91 102.982 239.235 102.737C239.56 102.489 239.807 102.146 239.976 101.708C240.145 101.267 240.229 100.759 240.229 100.182C240.229 99.6117 240.147 99.1129 239.981 98.6854C239.815 98.2545 239.57 97.9197 239.245 97.6811C238.92 97.4392 238.519 97.3182 238.042 97.3182C237.545 97.3182 237.13 97.4458 236.799 97.701C236.471 97.9529 236.224 98.2959 236.058 98.7301C235.896 99.161 235.815 99.6449 235.815 100.182C235.815 100.725 235.898 101.219 236.063 101.663C236.232 102.104 236.481 102.455 236.809 102.717C237.14 102.976 237.551 103.105 238.042 103.105ZM245.942 104.179C245.458 104.179 245.019 104.088 244.624 103.906C244.23 103.72 243.917 103.453 243.685 103.105C243.453 102.754 243.337 102.33 243.337 101.832C243.337 101.395 243.423 101.04 243.595 100.768C243.768 100.493 243.998 100.278 244.286 100.122C244.575 99.9664 244.893 99.8504 245.241 99.7741C245.592 99.6946 245.945 99.6316 246.3 99.5852C246.764 99.5256 247.14 99.4808 247.428 99.451C247.72 99.4179 247.932 99.3632 248.065 99.2869C248.201 99.2107 248.268 99.0781 248.268 98.8892V98.8494C248.268 98.3589 248.134 97.9777 247.866 97.706C247.601 97.4342 247.198 97.2983 246.658 97.2983C246.098 97.2983 245.658 97.4209 245.34 97.6662C245.022 97.9115 244.798 98.1733 244.669 98.4517L243.555 98.054C243.754 97.59 244.019 97.2287 244.351 96.9702C244.686 96.7083 245.05 96.526 245.445 96.4233C245.842 96.3172 246.233 96.2642 246.618 96.2642C246.863 96.2642 247.145 96.294 247.463 96.3537C247.785 96.41 248.094 96.5277 248.393 96.7067C248.694 96.8857 248.945 97.1558 249.143 97.517C249.342 97.8783 249.442 98.3622 249.442 98.9688V104H248.268V102.966H248.209C248.129 103.132 247.997 103.309 247.811 103.498C247.625 103.687 247.379 103.848 247.07 103.98C246.762 104.113 246.386 104.179 245.942 104.179ZM246.121 103.125C246.585 103.125 246.976 103.034 247.294 102.852C247.616 102.669 247.858 102.434 248.02 102.146C248.186 101.857 248.268 101.554 248.268 101.236V100.162C248.219 100.222 248.109 100.276 247.94 100.326C247.775 100.372 247.582 100.414 247.364 100.45C247.148 100.483 246.938 100.513 246.732 100.54C246.53 100.563 246.366 100.583 246.24 100.599C245.935 100.639 245.65 100.704 245.385 100.793C245.123 100.879 244.911 101.01 244.749 101.186C244.59 101.358 244.51 101.594 244.51 101.892C244.51 102.3 244.661 102.608 244.962 102.817C245.267 103.022 245.653 103.125 246.121 103.125ZM251.583 104V96.3636H252.717V97.517H252.796C252.936 97.1392 253.187 96.8326 253.552 96.5973C253.917 96.362 254.328 96.2443 254.785 96.2443C254.871 96.2443 254.979 96.246 255.108 96.2493C255.237 96.2526 255.335 96.2576 255.401 96.2642V97.4574C255.362 97.4474 255.271 97.4325 255.128 97.4126C254.989 97.3894 254.841 97.3778 254.686 97.3778C254.314 97.3778 253.983 97.4557 253.691 97.6115C253.403 97.764 253.174 97.9761 253.005 98.2479C252.839 98.5163 252.757 98.8229 252.757 99.1676V104H251.583ZM259.039 104.179C258.556 104.179 258.116 104.088 257.722 103.906C257.328 103.72 257.014 103.453 256.782 103.105C256.55 102.754 256.434 102.33 256.434 101.832C256.434 101.395 256.52 101.04 256.693 100.768C256.865 100.493 257.096 100.278 257.384 100.122C257.672 99.9664 257.99 99.8504 258.338 99.7741C258.69 99.6946 259.043 99.6316 259.397 99.5852C259.861 99.5256 260.238 99.4808 260.526 99.451C260.818 99.4179 261.03 99.3632 261.162 99.2869C261.298 99.2107 261.366 99.0781 261.366 98.8892V98.8494C261.366 98.3589 261.232 97.9777 260.963 97.706C260.698 97.4342 260.296 97.2983 259.755 97.2983C259.195 97.2983 258.756 97.4209 258.438 97.6662C258.12 97.9115 257.896 98.1733 257.767 98.4517L256.653 98.054C256.852 97.59 257.117 97.2287 257.449 96.9702C257.783 96.7083 258.148 96.526 258.542 96.4233C258.94 96.3172 259.331 96.2642 259.716 96.2642C259.961 96.2642 260.243 96.294 260.561 96.3537C260.882 96.41 261.192 96.5277 261.49 96.7067C261.792 96.8857 262.042 97.1558 262.241 97.517C262.44 97.8783 262.539 98.3622 262.539 98.9688V104H261.366V102.966H261.306C261.227 103.132 261.094 103.309 260.909 103.498C260.723 103.687 260.476 103.848 260.168 103.98C259.86 104.113 259.484 104.179 259.039 104.179ZM259.218 103.125C259.682 103.125 260.074 103.034 260.392 102.852C260.713 102.669 260.955 102.434 261.118 102.146C261.283 101.857 261.366 101.554 261.366 101.236V100.162C261.316 100.222 261.207 100.276 261.038 100.326C260.872 100.372 260.68 100.414 260.461 100.45C260.246 100.483 260.035 100.513 259.83 100.54C259.628 100.563 259.464 100.583 259.338 100.599C259.033 100.639 258.748 100.704 258.483 100.793C258.221 100.879 258.009 101.01 257.846 101.186C257.687 101.358 257.608 101.594 257.608 101.892C257.608 102.3 257.758 102.608 258.06 102.817C258.365 103.022 258.751 103.125 259.218 103.125ZM265.854 99.4062V104H264.681V96.3636H265.814V97.5568H265.914C266.093 97.169 266.365 96.8575 266.729 96.6222C267.094 96.3835 267.564 96.2642 268.141 96.2642C268.658 96.2642 269.111 96.3703 269.498 96.5824C269.886 96.7912 270.188 97.1094 270.403 97.5369C270.619 97.9612 270.726 98.4981 270.726 99.1477V104H269.553V99.2273C269.553 98.6274 269.397 98.16 269.086 97.8253C268.774 97.4872 268.347 97.3182 267.803 97.3182C267.429 97.3182 267.094 97.3994 266.799 97.5618C266.507 97.7242 266.277 97.9612 266.108 98.2727C265.939 98.5843 265.854 98.9621 265.854 99.4062Z" fill="white"/>
</svg>
