<svg width="165" height="40" viewBox="0 0 165 40" fill="none" xmlns="http://www.w3.org/2000/svg">
<path d="M153.438 0C154.818 0.000102882 155.938 1.11935 155.938 2.5C155.937 3.48897 155.362 4.34066 154.528 4.74609V6.65332C158.678 6.94765 161.954 10.4058 161.954 14.6309V28.376C161.954 31.1164 160.575 33.5338 158.475 34.9756V37.4785C158.474 38.8589 157.355 39.9785 155.975 39.9785C154.594 39.9785 153.475 38.859 153.475 37.4785V36.376H142.82C142.777 36.376 142.733 36.3728 142.689 36.3721V37.4785C142.689 38.8588 141.57 39.9783 140.189 39.9785C138.809 39.9785 137.69 38.859 137.689 37.4785V34.5127C135.936 33.0452 134.82 30.8412 134.82 28.376V14.6309C134.82 10.8136 137.494 7.623 141.071 6.8252V4.74609C140.238 4.34065 139.662 3.48894 139.662 2.5C139.662 1.11933 140.781 6.59726e-05 142.162 0H153.438ZM146.071 5V6.63086H149.528V5H146.071Z" fill="#336749"/>
<path d="M8.68075 27.5295V12.9841H14.1353C15.2527 12.9841 16.1902 13.1924 16.9478 13.6091C17.7101 14.0258 18.2854 14.5987 18.6737 15.3278C19.0666 16.0523 19.2631 16.8761 19.2631 17.7994C19.2631 18.7322 19.0666 19.5608 18.6737 20.2852C18.2807 21.0097 17.7006 21.5802 16.9336 21.9969C16.1665 22.4088 15.2219 22.6148 14.0998 22.6148H10.4847V20.4486H13.7447C14.3981 20.4486 14.9331 20.3349 15.3498 20.1077C15.7665 19.8804 16.0742 19.5679 16.2731 19.1702C16.4767 18.7724 16.5785 18.3155 16.5785 17.7994C16.5785 17.2833 16.4767 16.8288 16.2731 16.4358C16.0742 16.0428 15.7641 15.7374 15.3427 15.5196C14.926 15.2971 14.3886 15.1858 13.7305 15.1858H11.3157V27.5295H8.68075ZM24.3821 27.7497C23.6908 27.7497 23.0682 27.6266 22.5142 27.3804C21.965 27.1294 21.5294 26.7601 21.2074 26.2724C20.8902 25.7847 20.7315 25.1834 20.7315 24.4685C20.7315 23.8529 20.8452 23.3439 21.0724 22.9415C21.2997 22.539 21.6098 22.217 22.0028 21.9756C22.3958 21.7341 22.8385 21.5518 23.331 21.4287C23.8281 21.3008 24.3419 21.2085 24.8722 21.1517C25.5114 21.0854 26.0298 21.0262 26.4276 20.9741C26.8253 20.9173 27.1141 20.8321 27.294 20.7185C27.4787 20.6001 27.571 20.4178 27.571 20.1716V20.129C27.571 19.5939 27.4124 19.1796 27.0952 18.8861C26.7779 18.5925 26.321 18.4457 25.7244 18.4457C25.0947 18.4457 24.5952 18.583 24.2259 18.8577C23.8613 19.1323 23.6151 19.4566 23.4872 19.8307L21.0866 19.4898C21.276 18.8269 21.5885 18.2729 22.0241 17.8278C22.4598 17.378 22.9924 17.0419 23.6222 16.8193C24.2519 16.592 24.9479 16.4784 25.7102 16.4784C26.2358 16.4784 26.759 16.54 27.2798 16.6631C27.8007 16.7862 28.2765 16.9898 28.7074 17.2739C29.1383 17.5532 29.4839 17.9344 29.7443 18.4173C30.0095 18.9003 30.142 19.504 30.142 20.2284V27.5295H27.6705V26.031H27.5852C27.429 26.334 27.2088 26.6181 26.9247 26.8832C26.6454 27.1437 26.2926 27.3544 25.8665 27.5153C25.4451 27.6716 24.9503 27.7497 24.3821 27.7497ZM25.0497 25.8605C25.5658 25.8605 26.0133 25.7587 26.392 25.5551C26.7708 25.3468 27.062 25.0722 27.2656 24.7312C27.474 24.3903 27.5781 24.0187 27.5781 23.6162V22.3307C27.4976 22.397 27.3603 22.4585 27.1662 22.5153C26.9768 22.5722 26.7637 22.6219 26.527 22.6645C26.2902 22.7071 26.0559 22.745 25.8239 22.7781C25.5919 22.8113 25.3906 22.8397 25.2202 22.8633C24.8366 22.9154 24.4934 23.0007 24.1903 23.119C23.8873 23.2374 23.6482 23.4031 23.473 23.6162C23.2978 23.8245 23.2102 24.0944 23.2102 24.4258C23.2102 24.8993 23.383 25.2568 23.7287 25.4983C24.0743 25.7398 24.5147 25.8605 25.0497 25.8605ZM35.2983 21.1375V27.5295H32.7273V16.6204H35.1847V18.4741H35.3125C35.5634 17.8633 35.9635 17.378 36.5128 17.0182C37.0668 16.6583 37.7509 16.4784 38.5653 16.4784C39.3182 16.4784 39.974 16.6394 40.5327 16.9614C41.0961 17.2833 41.5317 17.7497 41.8395 18.3605C42.152 18.9713 42.3059 19.7123 42.3011 20.5835V27.5295H39.7301V20.9812C39.7301 20.2521 39.5407 19.6815 39.1619 19.2696C38.7879 18.8577 38.2694 18.6517 37.6065 18.6517C37.1567 18.6517 36.7566 18.7511 36.4062 18.95C36.0606 19.1441 35.7884 19.4258 35.5895 19.7952C35.3954 20.1645 35.2983 20.6119 35.2983 21.1375ZM49.6591 31.8477C48.7358 31.8477 47.9427 31.7222 47.2798 31.4713C46.617 31.2251 46.0843 30.8937 45.6818 30.477C45.2794 30.0603 45 29.5987 44.8438 29.092L47.1591 28.531C47.2633 28.744 47.4148 28.9547 47.6136 29.1631C47.8125 29.3761 48.08 29.5513 48.4162 29.6886C48.7571 29.8307 49.1856 29.9017 49.7017 29.9017C50.4309 29.9017 51.0346 29.7241 51.5128 29.369C51.991 29.0187 52.2301 28.441 52.2301 27.6361V25.5693H52.1023C51.9697 25.8345 51.7756 26.1067 51.5199 26.3861C51.2689 26.6654 50.9351 26.8998 50.5185 27.0892C50.1065 27.2786 49.5881 27.3733 48.9631 27.3733C48.125 27.3733 47.3651 27.1768 46.6832 26.7838C46.0062 26.3861 45.4664 25.7942 45.0639 25.0082C44.6662 24.2175 44.4673 23.2279 44.4673 22.0395C44.4673 20.8416 44.6662 19.8307 45.0639 19.0068C45.4664 18.1782 46.0085 17.5508 46.6903 17.1247C47.3722 16.6938 48.1321 16.4784 48.9702 16.4784C49.6094 16.4784 50.1349 16.5873 50.5469 16.8051C50.9635 17.0182 51.295 17.2762 51.5412 17.5793C51.7874 17.8776 51.9744 18.1593 52.1023 18.4244H52.2443V16.6204H54.7798V27.7071C54.7798 28.6399 54.5573 29.4116 54.1122 30.0224C53.6671 30.6332 53.0587 31.0901 52.2869 31.3932C51.5152 31.6962 50.6392 31.8477 49.6591 31.8477ZM49.6804 25.3562C50.2249 25.3562 50.6889 25.2237 51.0724 24.9585C51.456 24.6934 51.7472 24.3122 51.946 23.8151C52.1449 23.3179 52.2443 22.7213 52.2443 22.0253C52.2443 21.3387 52.1449 20.7374 51.946 20.2213C51.7519 19.7052 51.4631 19.3051 51.0795 19.021C50.7008 18.7322 50.2344 18.5878 49.6804 18.5878C49.1075 18.5878 48.6293 18.7369 48.2457 19.0352C47.8622 19.3335 47.5734 19.7431 47.3793 20.2639C47.1851 20.78 47.0881 21.3671 47.0881 22.0253C47.0881 22.6929 47.1851 23.2776 47.3793 23.7795C47.5781 24.2767 47.8693 24.665 48.2528 24.9443C48.6411 25.2189 49.117 25.3562 49.6804 25.3562ZM60.554 27.7497C59.8627 27.7497 59.2401 27.6266 58.6861 27.3804C58.1368 27.1294 57.7012 26.7601 57.3793 26.2724C57.062 25.7847 56.9034 25.1834 56.9034 24.4685C56.9034 23.8529 57.017 23.3439 57.2443 22.9415C57.4716 22.539 57.7817 22.217 58.1747 21.9756C58.5677 21.7341 59.0104 21.5518 59.5028 21.4287C60 21.3008 60.5137 21.2085 61.044 21.1517C61.6832 21.0854 62.2017 21.0262 62.5994 20.9741C62.9972 20.9173 63.286 20.8321 63.4659 20.7185C63.6506 20.6001 63.7429 20.4178 63.7429 20.1716V20.129C63.7429 19.5939 63.5843 19.1796 63.267 18.8861C62.9498 18.5925 62.4929 18.4457 61.8963 18.4457C61.2666 18.4457 60.767 18.583 60.3977 18.8577C60.0331 19.1323 59.7869 19.4566 59.6591 19.8307L57.2585 19.4898C57.4479 18.8269 57.7604 18.2729 58.196 17.8278C58.6316 17.378 59.1643 17.0419 59.794 16.8193C60.4238 16.592 61.1198 16.4784 61.8821 16.4784C62.4077 16.4784 62.9309 16.54 63.4517 16.6631C63.9725 16.7862 64.4484 16.9898 64.8793 17.2739C65.3101 17.5532 65.6558 17.9344 65.9162 18.4173C66.1813 18.9003 66.3139 19.504 66.3139 20.2284V27.5295H63.8423V26.031H63.7571C63.6009 26.334 63.3807 26.6181 63.0966 26.8832C62.8172 27.1437 62.4645 27.3544 62.0384 27.5153C61.617 27.6716 61.1222 27.7497 60.554 27.7497ZM61.2216 25.8605C61.7377 25.8605 62.1851 25.7587 62.5639 25.5551C62.9427 25.3468 63.2339 25.0722 63.4375 24.7312C63.6458 24.3903 63.75 24.0187 63.75 23.6162V22.3307C63.6695 22.397 63.5322 22.4585 63.3381 22.5153C63.1487 22.5722 62.9356 22.6219 62.6989 22.6645C62.4621 22.7071 62.2277 22.745 61.9957 22.7781C61.7637 22.8113 61.5625 22.8397 61.392 22.8633C61.0085 22.9154 60.6652 23.0007 60.3622 23.119C60.0592 23.2374 59.8201 23.4031 59.6449 23.6162C59.4697 23.8245 59.3821 24.0944 59.3821 24.4258C59.3821 24.8993 59.5549 25.2568 59.9006 25.4983C60.2462 25.7398 60.6866 25.8605 61.2216 25.8605ZM71.4702 21.1375V27.5295H68.8991V16.6204H71.3565V18.4741H71.4844C71.7353 17.8633 72.1354 17.378 72.6847 17.0182C73.2386 16.6583 73.9228 16.4784 74.7372 16.4784C75.4901 16.4784 76.1458 16.6394 76.7045 16.9614C77.268 17.2833 77.7036 17.7497 78.0114 18.3605C78.3239 18.9713 78.4777 19.7123 78.473 20.5835V27.5295H75.902V20.9812C75.902 20.2521 75.7126 19.6815 75.3338 19.2696C74.9598 18.8577 74.4413 18.6517 73.7784 18.6517C73.3286 18.6517 72.9285 18.7511 72.5781 18.95C72.2325 19.1441 71.9602 19.4258 71.7614 19.7952C71.5672 20.1645 71.4702 20.6119 71.4702 21.1375ZM85.1349 27.7213C84.2779 27.7213 83.5109 27.5011 82.8338 27.0608C82.1567 26.6205 81.6217 25.9812 81.2287 25.1432C80.8357 24.3051 80.6392 23.2871 80.6392 22.0892C80.6392 20.8771 80.8381 19.8544 81.2358 19.021C81.6383 18.1829 82.1804 17.5508 82.8622 17.1247C83.544 16.6938 84.304 16.4784 85.142 16.4784C85.7813 16.4784 86.3068 16.5873 86.7188 16.8051C87.1307 17.0182 87.4574 17.2762 87.6989 17.5793C87.9403 17.8776 88.1274 18.1593 88.2599 18.4244H88.3665V12.9841H90.9446V27.5295H88.4162V25.8108H88.2599C88.1274 26.0759 87.9356 26.3577 87.6847 26.656C87.4337 26.9495 87.1023 27.2005 86.6903 27.4088C86.2784 27.6171 85.7599 27.7213 85.1349 27.7213ZM85.8523 25.6119C86.3968 25.6119 86.8608 25.4651 87.2443 25.1716C87.6278 24.8733 87.919 24.459 88.1179 23.9287C88.3168 23.3984 88.4162 22.7805 88.4162 22.075C88.4162 21.3695 88.3168 20.7563 88.1179 20.2355C87.9238 19.7147 87.6349 19.3098 87.2514 19.021C86.8726 18.7322 86.4063 18.5878 85.8523 18.5878C85.2794 18.5878 84.8011 18.7369 84.4176 19.0352C84.0341 19.3335 83.7453 19.7454 83.5511 20.271C83.357 20.7966 83.2599 21.3979 83.2599 22.075C83.2599 22.7568 83.357 23.3652 83.5511 23.9003C83.75 24.4306 84.0412 24.8496 84.4247 25.1574C84.813 25.4604 85.2888 25.6119 85.8523 25.6119ZM96.8235 27.7497C96.1322 27.7497 95.5096 27.6266 94.9556 27.3804C94.4064 27.1294 93.9708 26.7601 93.6488 26.2724C93.3316 25.7847 93.1729 25.1834 93.1729 24.4685C93.1729 23.8529 93.2866 23.3439 93.5138 22.9415C93.7411 22.539 94.0513 22.217 94.4442 21.9756C94.8372 21.7341 95.2799 21.5518 95.7724 21.4287C96.2695 21.3008 96.7833 21.2085 97.3136 21.1517C97.9528 21.0854 98.4712 21.0262 98.869 20.9741C99.2667 20.9173 99.5555 20.8321 99.7354 20.7185C99.9201 20.6001 100.012 20.4178 100.012 20.1716V20.129C100.012 19.5939 99.8538 19.1796 99.5366 18.8861C99.2193 18.5925 98.7624 18.4457 98.1658 18.4457C97.5361 18.4457 97.0366 18.583 96.6673 18.8577C96.3027 19.1323 96.0565 19.4566 95.9286 19.8307L93.5281 19.4898C93.7174 18.8269 94.0299 18.2729 94.4656 17.8278C94.9012 17.378 95.4338 17.0419 96.0636 16.8193C96.6933 16.592 97.3893 16.4784 98.1516 16.4784C98.6772 16.4784 99.2004 16.54 99.7212 16.6631C100.242 16.7862 100.718 16.9898 101.149 17.2739C101.58 17.5532 101.925 17.9344 102.186 18.4173C102.451 18.9003 102.583 19.504 102.583 20.2284V27.5295H100.112V26.031H100.027C99.8704 26.334 99.6502 26.6181 99.3661 26.8832C99.0868 27.1437 98.734 27.3544 98.3079 27.5153C97.8865 27.6716 97.3917 27.7497 96.8235 27.7497ZM97.4911 25.8605C98.0072 25.8605 98.4547 25.7587 98.8335 25.5551C99.2122 25.3468 99.5034 25.0722 99.707 24.7312C99.9154 24.3903 100.02 24.0187 100.02 23.6162V22.3307C99.939 22.397 99.8017 22.4585 99.6076 22.5153C99.4182 22.5722 99.2051 22.6219 98.9684 22.6645C98.7317 22.7071 98.4973 22.745 98.2653 22.7781C98.0333 22.8113 97.832 22.8397 97.6616 22.8633C97.2781 22.9154 96.9348 23.0007 96.6317 23.119C96.3287 23.2374 96.0896 23.4031 95.9144 23.6162C95.7392 23.8245 95.6516 24.0944 95.6516 24.4258C95.6516 24.8993 95.8245 25.2568 96.1701 25.4983C96.5157 25.7398 96.9561 25.8605 97.4911 25.8605ZM105.169 27.5295V16.6204H107.662V18.4386H107.775C107.974 17.8089 108.315 17.3236 108.798 16.9827C109.286 16.637 109.842 16.4642 110.467 16.4642C110.609 16.4642 110.768 16.4713 110.943 16.4855C111.123 16.495 111.272 16.5115 111.39 16.5352V18.9003C111.281 18.8624 111.109 18.8293 110.872 18.8008C110.64 18.7677 110.415 18.7511 110.197 18.7511C109.728 18.7511 109.307 18.8529 108.933 19.0565C108.564 19.2554 108.272 19.5324 108.059 19.8875C107.846 20.2426 107.74 20.6522 107.74 21.1162V27.5295H105.169ZM116.042 27.7497C115.351 27.7497 114.728 27.6266 114.174 27.3804C113.625 27.1294 113.19 26.7601 112.868 26.2724C112.55 25.7847 112.392 25.1834 112.392 24.4685C112.392 23.8529 112.505 23.3439 112.733 22.9415C112.96 22.539 113.27 22.217 113.663 21.9756C114.056 21.7341 114.499 21.5518 114.991 21.4287C115.488 21.3008 116.002 21.2085 116.532 21.1517C117.172 21.0854 117.69 21.0262 118.088 20.9741C118.485 20.9173 118.774 20.8321 118.954 20.7185C119.139 20.6001 119.231 20.4178 119.231 20.1716V20.129C119.231 19.5939 119.073 19.1796 118.755 18.8861C118.438 18.5925 117.981 18.4457 117.385 18.4457C116.755 18.4457 116.255 18.583 115.886 18.8577C115.521 19.1323 115.275 19.4566 115.147 19.8307L112.747 19.4898C112.936 18.8269 113.249 18.2729 113.684 17.8278C114.12 17.378 114.653 17.0419 115.282 16.8193C115.912 16.592 116.608 16.4784 117.37 16.4784C117.896 16.4784 118.419 16.54 118.94 16.6631C119.461 16.7862 119.937 16.9898 120.368 17.2739C120.798 17.5532 121.144 17.9344 121.404 18.4173C121.67 18.9003 121.802 19.504 121.802 20.2284V27.5295H119.331V26.031H119.245C119.089 26.334 118.869 26.6181 118.585 26.8832C118.306 27.1437 117.953 27.3544 117.527 27.5153C117.105 27.6716 116.61 27.7497 116.042 27.7497ZM116.71 25.8605C117.226 25.8605 117.673 25.7587 118.052 25.5551C118.431 25.3468 118.722 25.0722 118.926 24.7312C119.134 24.3903 119.238 24.0187 119.238 23.6162V22.3307C119.158 22.397 119.02 22.4585 118.826 22.5153C118.637 22.5722 118.424 22.6219 118.187 22.6645C117.95 22.7071 117.716 22.745 117.484 22.7781C117.252 22.8113 117.051 22.8397 116.88 22.8633C116.497 22.9154 116.154 23.0007 115.85 23.119C115.547 23.2374 115.308 23.4031 115.133 23.6162C114.958 23.8245 114.87 24.0944 114.87 24.4258C114.87 24.8993 115.043 25.2568 115.389 25.4983C115.734 25.7398 116.175 25.8605 116.71 25.8605ZM126.958 21.1375V27.5295H124.387V16.6204H126.845V18.4741H126.973C127.224 17.8633 127.624 17.378 128.173 17.0182C128.727 16.6583 129.411 16.4784 130.225 16.4784C130.978 16.4784 131.634 16.6394 132.193 16.9614C132.756 17.2833 133.192 17.7497 133.5 18.3605C133.812 18.9713 133.966 19.7123 133.961 20.5835V27.5295H131.39V20.9812C131.39 20.2521 131.201 19.6815 130.822 19.2696C130.448 18.8577 129.93 18.6517 129.267 18.6517C128.817 18.6517 128.417 18.7511 128.066 18.95C127.721 19.1441 127.449 19.4258 127.25 19.7952C127.056 20.1645 126.958 20.6119 126.958 21.1375Z" fill="#336749"/>
<path d="M138.159 27.6858C137.728 27.6858 137.359 27.5343 137.051 27.2312C136.743 26.9282 136.592 26.5589 136.596 26.1233C136.592 25.6972 136.743 25.3326 137.051 25.0295C137.359 24.7265 137.728 24.575 138.159 24.575C138.575 24.575 138.938 24.7265 139.245 25.0295C139.558 25.3326 139.717 25.6972 139.721 26.1233C139.717 26.4121 139.641 26.6749 139.494 26.9116C139.352 27.1484 139.163 27.3378 138.926 27.4798C138.694 27.6171 138.438 27.6858 138.159 27.6858ZM145.515 27.7497C144.824 27.7497 144.201 27.6266 143.647 27.3804C143.098 27.1294 142.662 26.7601 142.34 26.2724C142.023 25.7847 141.864 25.1834 141.864 24.4685C141.864 23.8529 141.978 23.3439 142.205 22.9415C142.433 22.539 142.743 22.217 143.136 21.9756C143.529 21.7341 143.971 21.5518 144.464 21.4287C144.961 21.3008 145.475 21.2085 146.005 21.1517C146.644 21.0854 147.163 21.0262 147.56 20.9741C147.958 20.9173 148.247 20.8321 148.427 20.7185C148.612 20.6001 148.704 20.4178 148.704 20.1716V20.129C148.704 19.5939 148.545 19.1796 148.228 18.8861C147.911 18.5925 147.454 18.4457 146.857 18.4457C146.228 18.4457 145.728 18.583 145.359 18.8577C144.994 19.1323 144.748 19.4566 144.62 19.8307L142.219 19.4898C142.409 18.8269 142.721 18.2729 143.157 17.8278C143.593 17.378 144.125 17.0419 144.755 16.8193C145.385 16.592 146.081 16.4784 146.843 16.4784C147.369 16.4784 147.892 16.54 148.413 16.6631C148.933 16.7862 149.409 16.9898 149.84 17.2739C150.271 17.5532 150.617 17.9344 150.877 18.4173C151.142 18.9003 151.275 19.504 151.275 20.2284V27.5295H148.803V26.031H148.718C148.562 26.334 148.342 26.6181 148.058 26.8832C147.778 27.1437 147.425 27.3544 146.999 27.5153C146.578 27.6716 146.083 27.7497 145.515 27.7497ZM146.183 25.8605C146.699 25.8605 147.146 25.7587 147.525 25.5551C147.904 25.3468 148.195 25.0722 148.398 24.7312C148.607 24.3903 148.711 24.0187 148.711 23.6162V22.3307C148.63 22.397 148.493 22.4585 148.299 22.5153C148.11 22.5722 147.897 22.6219 147.66 22.6645C147.423 22.7071 147.189 22.745 146.957 22.7781C146.725 22.8113 146.523 22.8397 146.353 22.8633C145.969 22.9154 145.626 23.0007 145.323 23.119C145.02 23.2374 144.781 23.4031 144.606 23.6162C144.431 23.8245 144.343 24.0944 144.343 24.4258C144.343 24.8993 144.516 25.2568 144.862 25.4983C145.207 25.7398 145.647 25.8605 146.183 25.8605ZM153.86 27.5295V16.6204H156.431V27.5295H153.86ZM155.153 15.0722C154.746 15.0722 154.395 14.9372 154.102 14.6673C153.808 14.3927 153.661 14.0636 153.661 13.6801C153.661 13.2919 153.808 12.9628 154.102 12.6929C154.395 12.4183 154.746 12.281 155.153 12.281C155.565 12.281 155.915 12.4183 156.204 12.6929C156.497 12.9628 156.644 13.2919 156.644 13.6801C156.644 14.0636 156.497 14.3927 156.204 14.6673C155.915 14.9372 155.565 15.0722 155.153 15.0722Z" fill="white"/>
</svg>
