<svg width="18" height="18" viewBox="0 0 18 18" fill="none" xmlns="http://www.w3.org/2000/svg">
<g clip-path="url(#clip0_118_516)">
<path d="M4.84 8.80002C6.05303 8.80002 7.04 7.81305 7.04 6.60002C7.04 5.38699 6.05303 4.40002 4.84 4.40002C3.62698 4.40002 2.64 5.38699 2.64 6.60002C2.64 7.81305 3.62698 8.80002 4.84 8.80002ZM14.52 5.28002H8.36C8.1169 5.28002 7.92 5.47692 7.92 5.72002V9.68002H1.76V3.96002C1.76 3.71692 1.5631 3.52002 1.32 3.52002H0.44C0.1969 3.52002 0 3.71692 0 3.96002V13.64C0 13.8831 0.1969 14.08 0.44 14.08H1.32C1.5631 14.08 1.76 13.8831 1.76 13.64V12.32H15.84V13.64C15.84 13.8831 16.0369 14.08 16.28 14.08H17.16C17.4031 14.08 17.6 13.8831 17.6 13.64V8.36002C17.6 6.65887 16.2212 5.28002 14.52 5.28002Z" fill="#23B7F6"/>
</g>
<defs>
<clipPath id="clip0_118_516">
<rect width="17.6" height="17.6" fill="white"/>
</clipPath>
</defs>
</svg>
